<svg xmlns="http://www.w3.org/2000/svg" viewBox="0 0 183.12 54.77"><defs><style>.cls-1{fill:#04091e;}.cls-2{fill:#e84221;}.cls-3{fill:#fca846;}.cls-4{fill:#cf7930;}.cls-5{fill:#f07254;}.cls-6{fill:#303030;}.cls-7{fill:#fff;}</style></defs><g id="Layer_2" data-name="Layer 2"><g id="Layer_1-2" data-name="Layer 1"><path class="cls-1" d="M23.23,47.14v1.77c0,5.76-1,13-10.54,13C4,62,2.33,56.24,2.33,49V24.67c0-7.54,3.34-12.17,10.46-12.17C21.41,12.5,23,18.37,23,24.88v2h-6.5v-2.7c0-3.46-.68-5.84-3.77-5.84s-3.84,2.21-3.84,5.9V49.52c0,3.85.8,6.6,3.95,6.6s3.83-2.6,3.83-6.58v-2.4Z" transform="translate(-2.33 -7.99)"/><path class="cls-1" d="M34.05,13.17V50.1c0,3.7,1.25,6,4.43,6s4.33-2.38,4.33-6V13.17h6.47V50c0,7.53-3.39,12-10.92,12C31.13,62,27.6,58,27.6,50V13.17Z" transform="translate(-2.33 -7.99)"/><path class="cls-1" d="M75.65,47.14v1.77c0,5.76-1,13-10.55,13C56.44,62,54.75,56.24,54.75,49V24.67c0-7.54,3.34-12.17,10.46-12.17,8.62,0,10.22,5.87,10.22,12.38v2H68.94v-2.7c0-3.46-.68-5.84-3.78-5.84s-3.84,2.21-3.84,5.9V49.52c0,3.85.81,6.6,4,6.6s3.83-2.6,3.83-6.58v-2.4Z" transform="translate(-2.33 -7.99)"/><path class="cls-1" d="M86.46,13.17V50.1c0,3.7,1.25,6,4.44,6s4.33-2.38,4.33-6V13.17h6.47V50c0,7.53-3.39,12-10.93,12C83.54,62,80,58,80,50V13.17Z" transform="translate(-2.33 -7.99)"/><path class="cls-1" d="M108.21,24.62h5.12V61.27h-5.12Zm0-13.58h5.12v7.44h-5.12Z" transform="translate(-2.33 -7.99)"/><path class="cls-1" d="M116.7,24.62h4.2v-9H126v9h5.17v4.54H126V53.77c0,1.89.34,3.69,2.65,3.69a11.48,11.48,0,0,0,2.3-.21v4a11.39,11.39,0,0,1-4,.56c-3.55,0-6-1.47-6-7.07V29.16h-4.2Z" transform="translate(-2.33 -7.99)"/><path class="cls-2" d="M171.19,17.74s-6.06-4.63-14.81.15c0,0-5.92.06-2-9.9,0,0-2.13,1.67,4.35,2.71C158.7,10.7,170.45,13.34,171.19,17.74Z" transform="translate(-2.33 -7.99)"/><polygon class="cls-3" points="168.44 11.58 168.61 15.54 183.12 15.06 168.44 11.58"/><polygon class="cls-4" points="168.61 15.54 168.72 18.12 177.1 15.26 168.61 15.54"/><ellipse class="cls-5" cx="160.97" cy="38.2" rx="13.68" ry="10.61" transform="translate(48.96 154.08) rotate(-61.82)"/><ellipse class="cls-6" cx="163.91" cy="22.54" rx="8.37" ry="9.33" transform="translate(119.28 174.52) rotate(-83.02)"/><path class="cls-1" d="M143.28,50.55l11.41-29s15.43,4.54,10.12,19.75C164.81,41.29,160.41,53.54,143.28,50.55Z" transform="translate(-2.33 -7.99)"/><polygon class="cls-6" points="145.71 43.03 135.95 54.77 140.95 42.56 145.71 43.03"/><ellipse class="cls-7" cx="167.35" cy="21.04" rx="1.34" ry="1.5" transform="translate(123.79 176.61) rotate(-83.02)"/><ellipse class="cls-6" cx="167.97" cy="21.15" rx="0.63" ry="0.71" transform="translate(124.23 177.31) rotate(-83.02)"/></g></g></svg>