<svg height="562" width="2500" xmlns="http://www.w3.org/2000/svg" viewBox="0 0 356 83.90499999999999"><path d="M289.845 23.975c1.37 2.359 1.8 5.021 1.955 8.025l.2 4v28l.2 3.996c.396 6.542 5.204 11.386 11.804 11.804L308 80V36l.2-4c.156-2.967.591-5.689 1.972-8.055C312.947 19.193 318.1 16 324 16c5.921 0 11.091 3.216 13.857 7.996 1.363 2.355 1.785 5.073 1.943 8.004l.2 3.996V64l.2 3.996c.415 6.58 5.194 11.421 11.804 11.804L356 80V32c0-17.673-14.327-32-32-32-9.557 0-18.136 4.19-24 10.833C294.136 4.19 285.558 0 276 0a31.856 31.856 0 0 0-17.921 5.485C254.967 2.023 248 0 244 0v80l4-.2c6.681-.439 11.539-5.158 11.8-11.798L260 64V36l.2-4c.169-3.009.588-5.677 1.963-8.039C264.935 19.2 270.094 16 276 16c5.912 0 11.075 3.206 13.845 7.975zm-61.561-12.259c15.621 15.621 15.621 40.947 0 56.568s-40.947 15.621-56.568 0-15.621-40.947 0-56.568C179.52 3.912 189.746.006 199.975 0c10.279.006 20.505 3.912 28.309 11.716zm-11.313 11.313c9.372 9.373 9.372 24.569 0 33.942-9.373 9.372-24.569 9.372-33.941 0-9.373-9.373-9.373-24.569 0-33.942 9.372-9.372 24.568-9.372 33.941 0zM116.025 0c10.229.006 20.455 3.912 28.259 11.716 15.621 15.621 15.621 40.947 0 56.568s-40.947 15.621-56.568 0-15.621-40.947 0-56.568C95.52 3.912 105.746.006 115.975 0zm16.946 23.029c9.372 9.373 9.372 24.569 0 33.942-9.373 9.372-24.569 9.372-33.942 0-9.372-9.373-9.372-24.569 0-33.942 9.373-9.372 24.569-9.372 33.942 0zM16 79.8c-6.643-.437-11.405-5.21-11.8-11.804L4 64l48-48H16l-4.005-.2C5.453 15.422.718 10.504.2 3.996L0 0l60 .004L64 .2c6.626.35 11.483 5.167 11.8 11.805L76 16 28 64h36l4 .2c6.601.413 11.265 5.218 11.8 11.804L80 80H20z" fill="#5190cd" fill-rule="evenodd"/></svg>