<?xml version="1.0" standalone="no"?>
<!DOCTYPE svg PUBLIC "-//W3C//DTD SVG 20010904//EN"
 "http://www.w3.org/TR/2001/REC-SVG-20010904/DTD/svg10.dtd">
<svg version="1.0" xmlns="http://www.w3.org/2000/svg"
 width="880.000000pt" height="880.000000pt" viewBox="0 0 880.000000 880.000000"
 preserveAspectRatio="xMidYMid meet">
<metadata>
Created by potrace 1.11, written by Peter Selinger 2001-2013
</metadata>
<g transform="translate(0.000000,880.000000) scale(0.100000,-0.100000)"
fill="#000000" stroke="none">
<path d="M3170 8768 c-11 -12 -21 -29 -21 -37 -1 -9 -3 -26 -4 -39 -2 -19 8
-23 11 -4 1 12 23 66 34 85 14 23 5 21 -20 -5z"/>
<path d="M3126 8608 c-18 -51 -66 -210 -71 -235 -2 -10 -4 -18 -5 -18 -1 0 -4
-11 -6 -25 -3 -14 -9 -41 -14 -60 -5 -19 -12 -52 -16 -74 -3 -21 -8 -48 -10
-60 -27 -123 -24 -383 5 -491 38 -144 106 -254 199 -324 46 -35 143 -83 177
-88 11 -2 27 -6 35 -10 8 -3 21 -5 28 -4 6 1 12 -1 12 -5 0 -8 -41 -77 -50
-84 -11 -8 -100 -201 -99 -213 0 -1 -7 -20 -17 -42 -9 -22 -18 -51 -21 -65 -2
-14 -8 -41 -13 -60 -5 -19 -11 -55 -14 -80 -3 -25 -8 -54 -10 -65 -4 -20 -105
-279 -132 -342 -8 -17 -14 -34 -14 -38 0 -4 -7 -21 -14 -38 -8 -18 -57 -140
-109 -272 -52 -132 -135 -345 -186 -474 -51 -128 -101 -259 -113 -290 -11 -31
-24 -60 -28 -66 -8 -10 -21 -60 -19 -71 0 -4 -3 -10 -8 -13 -5 -3 -21 -40 -37
-81 -15 -41 -32 -84 -37 -95 -4 -11 -18 -45 -29 -75 -11 -30 -25 -64 -30 -75
-5 -11 -34 -85 -64 -165 -31 -80 -61 -153 -66 -162 -6 -10 -10 -22 -10 -28 0
-6 -8 -29 -19 -53 -16 -37 -42 -100 -82 -202 -7 -16 -13 -34 -14 -40 -1 -12
-21 -60 -41 -99 -8 -16 -14 -33 -14 -39 0 -5 -7 -23 -15 -40 -7 -18 -44 -108
-80 -202 -36 -93 -69 -179 -74 -190 -5 -11 -21 -51 -36 -90 -15 -38 -40 -101
-55 -140 -16 -38 -52 -131 -80 -205 -29 -74 -58 -148 -65 -165 -12 -28 -26
-63 -30 -75 -1 -3 -5 -13 -8 -22 -4 -10 -10 -26 -14 -35 -3 -10 -7 -20 -7 -23
-1 -3 -4 -9 -7 -15 -6 -9 -162 -404 -165 -415 0 -3 -4 -14 -9 -25 -4 -11 -30
-76 -57 -145 -27 -69 -53 -134 -58 -145 -5 -11 -39 -94 -75 -185 -37 -91 -73
-178 -80 -195 -7 -16 -34 -82 -59 -145 -26 -63 -54 -130 -62 -147 -8 -18 -21
-51 -29 -73 -8 -22 -21 -55 -28 -73 -51 -116 -97 -231 -97 -243 0 -8 -5 -14
-12 -14 -6 0 -9 -3 -6 -6 4 -3 -5 -31 -19 -62 -13 -31 -51 -121 -83 -201 -32
-81 -67 -164 -76 -186 -10 -22 -18 -42 -18 -45 -1 -5 -24 -60 -52 -125 -24
-57 -42 -100 -60 -150 -10 -27 -24 -61 -32 -75 -13 -22 -12 -22 14 5 16 17 47
53 69 80 22 28 43 52 46 55 3 3 83 99 179 215 95 116 176 212 179 215 3 3 24
27 46 54 21 27 49 61 62 75 12 14 26 31 30 36 24 30 140 171 153 185 16 18 19
21 125 150 83 102 89 109 112 135 10 12 34 41 54 65 20 25 45 55 55 67 27 30
47 54 96 115 56 68 89 107 108 127 8 9 26 32 40 51 13 19 30 40 36 45 16 13
123 144 133 164 7 11 35 15 125 17 123 2 290 12 340 19 17 3 54 7 81 9 28 3
59 7 70 10 11 2 40 7 65 10 50 7 63 9 135 26 28 6 61 13 75 15 14 2 26 4 28 6
2 2 1 1 72 18 53 12 57 12 120 -17 80 -36 168 -71 195 -77 11 -2 45 -11 75
-19 160 -43 373 -50 575 -20 32 5 186 40 255 58 91 25 341 138 437 199 24 15
47 27 52 27 5 0 11 7 15 15 3 8 11 15 17 15 10 0 136 87 165 114 7 6 26 22 44
36 124 98 300 280 401 415 24 33 49 65 55 72 6 6 26 35 45 65 18 29 36 55 39
58 23 21 161 277 209 390 18 41 38 89 46 105 11 25 25 64 30 85 1 3 5 12 8 20
10 24 49 144 52 160 2 8 8 35 15 60 7 25 14 52 15 60 2 8 9 38 15 65 6 28 13
59 14 70 2 11 6 38 10 60 29 171 35 525 11 645 -3 14 -8 45 -11 70 -9 65 -29
154 -54 235 -11 39 -22 75 -23 80 -6 24 -42 110 -85 205 -18 40 -63 117 -100
174 l-26 38 56 53 c91 86 172 186 235 290 6 11 28 55 49 98 20 42 37 77 38 77
1 0 60 21 131 46 72 25 137 47 145 49 8 2 87 29 175 60 88 31 171 58 184 61
13 3 33 10 43 15 11 6 27 12 36 14 9 2 64 20 122 40 58 20 113 39 124 41 10 2
23 7 30 12 26 21 111 33 256 37 354 10 561 17 740 25 l35 1 -45 15 c-46 14
-70 20 -117 29 -25 5 -48 10 -93 22 -8 2 -24 6 -35 8 -24 5 -39 8 -125 30 -36
8 -74 18 -85 20 -11 2 -39 9 -62 15 -24 5 -62 15 -85 20 -24 6 -52 12 -63 14
-11 2 -49 12 -85 21 -36 9 -74 19 -85 21 -152 33 -151 33 -213 50 -32 8 -70
18 -87 20 -16 3 -44 10 -62 15 -17 6 -44 12 -60 15 -15 3 -46 10 -68 16 -22 6
-53 13 -70 15 -16 3 -38 9 -47 14 -10 5 -18 8 -18 5 0 -3 -15 0 -32 5 -18 5
-46 12 -63 15 -36 7 -45 9 -65 16 -8 3 -91 23 -185 44 l-170 39 -20 50 c-23
58 -99 197 -117 216 -7 8 -22 27 -32 44 -11 16 -38 52 -60 80 -23 27 -47 69
-55 92 -8 23 -22 51 -33 62 -10 11 -18 23 -18 27 0 24 -139 168 -226 234 -32
25 -60 48 -62 53 -2 4 -8 7 -13 7 -6 0 -37 18 -69 40 -32 22 -64 40 -69 40 -6
0 -11 3 -11 8 0 4 -10 12 -23 18 -12 6 -80 41 -152 76 -71 36 -147 73 -167 82
-21 9 -53 22 -70 30 -119 52 -523 198 -581 210 -7 2 -19 6 -27 9 -8 3 -49 15
-90 27 -41 11 -100 28 -130 37 -30 9 -56 16 -57 15 -2 0 -17 4 -35 9 -18 6
-42 12 -53 14 -11 3 -31 7 -45 11 -14 3 -34 7 -45 9 -11 2 -31 6 -45 10 -14 3
-43 7 -65 10 -22 3 -53 9 -70 14 -24 8 -128 31 -155 36 -3 0 -11 4 -17 8 -7 5
-13 6 -13 3 0 -2 -37 9 -82 26 -46 16 -93 32 -105 35 -12 3 -28 11 -34 19 -6
8 -15 14 -20 14 -24 0 -119 81 -119 102 0 23 -20 3 -34 -34z"/>
</g>
</svg>
